<svg width="24" height="24" xmlns="http://www.w3.org/2000/svg" xmlns:xlink="http://www.w3.org/1999/xlink">
    <defs>
        <path d="M22.426 2.193c.755-.532 1.766.156 1.548 1.054a8.72 8.72 0 0 1-1.995 3.774c.015.162.022.325.023.49 0 11.859-11.446 17.951-21.486 12.373-.92-.511-.527-1.915.526-1.873a10.64 10.64 0 0 0 4.874-.967c-2.204-1.359-3.615-3.158-4.308-5.285-.715-2.197-.61-4.506-.014-6.699.18-.663.364-1.163.494-1.456a1 1 0 0 1 1.732-.168 9.66 9.66 0 0 0 7.182 4.08 5.48 5.48 0 0 1 9.133-4.12 9.9 9.9 0 0 0 2.29-1.203zM20.15 5.498a1 1 0 0 1-1.043-.301 3.48 3.48 0 0 0-6.105 2.343v1a1 1 0 0 1-.974 1 11.66 11.66 0 0 1-8.622-3.486c-.395 1.705-.424 3.463.104 5.086.677 2.08 2.227 3.77 4.898 4.956a1 1 0 0 1 .156 1.742c-1.12.76-2.346 1.33-3.63 1.696 7.68 2.02 15.068-3.077 15.068-12.02a3.5 3.5 0 0 0-.062-.646 1 1 0 0 1 .28-.9c.223-.22.429-.454.618-.7a11.9 11.9 0 0 1-.688.23z" id="a"/>
    </defs>
    <g fill="none" fill-rule="evenodd">
        <mask id="b" fill="#fff">
            <use xlink:href="#a"/>
        </mask>
        <use fill="#000" fill-rule="nonzero" xlink:href="#a"/>
        <g mask="url(#b)" fill="#FFF">
            <path d="M0 0h24v24H0z"/>
        </g>
    </g>
</svg>
